<svg width="139" height="22" viewBox="0 0 139 22" fill="none" xmlns="http://www.w3.org/2000/svg">
<path d="M135.748 21.094V0.999512H137V21.094H135.748Z" fill="#005F83"/>
<path d="M120.29 21.094V0.999512H132.376V2.16441H121.542V10.5517H131.094V11.7166H121.542V21.094H120.29Z" fill="#005F83"/>
<path d="M99.2458 21.094V0.999512H102.711V9.35767H112.555V0.999512H115.991V21.094H112.555V12.6194H102.711V21.094H99.2458Z" fill="#005F83"/>
<path d="M86.5707 21.4435C80.5715 21.4435 75.9993 16.9586 75.9993 11.0467C75.9993 5.13486 80.5715 0.649994 86.5707 0.649994C91.6089 0.649994 95.6278 3.82435 96.618 8.28009H92.9486C92.0458 5.71731 89.5704 3.99908 86.5707 3.99908C82.6101 3.99908 79.5813 7.02782 79.5813 11.0467C79.5813 15.0656 82.6101 18.0944 86.5707 18.0944C89.5704 18.0944 92.0458 16.3762 92.9486 13.8134H96.618C95.6278 18.2691 91.6089 21.4435 86.5707 21.4435Z" fill="#005F83"/>
<path d="M56.3376 21.094L64.259 0.999512H68.3652L76.2866 21.094H72.4715L70.8407 16.813H61.6962L60.0653 21.094H56.3376ZM61.6962 16.813H70.8407L66.2684 4.78544L61.6962 16.813Z" fill="#005F83"/>
<path d="M42.2927 21.094V0.999512H55.3687V4.26123H45.7583V9.35767H54.4077V12.6194H45.7583V17.8323H55.5143V21.094H42.2927Z" fill="#005F83"/>
<path d="M30.7196 21.094V4.26123H24.9824V0.999512H39.8931V4.26123H34.1851V21.094H30.7196Z" fill="#005F83"/>
<rect y="0.293182" width="21.4136" height="21.4136" rx="3.21204" fill="#005F83" fill-opacity="0.1"/>
<rect x="0.713623" y="1.00699" width="19.986" height="19.986" rx="2.85515" fill="#005F83"/>
<path d="M4.96695 11.1821C4.6799 11.2367 4.47487 11.4964 4.47487 11.7835C4.47487 11.9202 4.51588 12.0569 4.59789 12.1526L4.33818 13.6835C4.32451 13.7518 4.35185 13.8202 4.39286 13.8612C4.43386 13.9158 4.50221 13.9432 4.57055 13.9432H5.63672C5.70507 13.9432 5.75974 13.9158 5.80075 13.8612C5.84175 13.8065 5.86909 13.7518 5.85542 13.6835L5.63672 12.0842C5.6914 11.9885 5.71873 11.8792 5.71873 11.7698C5.71873 11.5511 5.59572 11.3461 5.41802 11.2367V10.4029L6.82591 11.0317V14.5036C6.82591 14.9273 7.16763 15.2827 7.60504 15.2827H13.9884C14.4121 15.2827 14.7675 14.941 14.7675 14.5036V10.813L18.1027 9.36411C18.1847 9.3231 18.2394 9.24109 18.2394 9.14541C18.2394 9.04973 18.171 8.96771 18.089 8.94038L10.4892 6.37063C10.4345 6.35696 10.3798 6.35696 10.3388 6.37063C7.74172 7.35479 3.47704 8.92671 3.08065 8.94038C2.9713 8.94038 2.87562 9.02239 2.86195 9.11807C2.83461 9.22742 2.88928 9.3231 2.99864 9.37778L4.96695 10.2389V11.1821ZM4.83026 13.5194L5.06263 12.1389C5.0763 12.0569 5.04896 11.9749 4.98062 11.9339C4.93961 11.9065 4.92594 11.8518 4.92594 11.8108C4.92594 11.7151 5.00795 11.6468 5.08997 11.6468C5.18565 11.6468 5.25399 11.7288 5.25399 11.8108C5.25399 11.8655 5.22666 11.8928 5.21299 11.9202C5.17198 11.9749 5.14464 12.0295 5.15831 12.0979L5.34968 13.5331H4.83026V13.5194ZM14.3028 14.5173C14.3028 14.695 14.1524 14.8453 13.9747 14.8453H7.59137C7.41367 14.8453 7.26331 14.695 7.26331 14.5173V11.2367L10.4482 12.6173C10.4755 12.631 10.5028 12.631 10.5438 12.631C10.5848 12.631 10.5985 12.631 10.6395 12.6173L14.3164 11.018V14.5173H14.3028ZM3.77776 9.22742C5.41802 8.72167 9.35465 7.23177 10.4208 6.82171L17.3646 9.20008L10.5302 12.1662L6.01945 10.2116L9.83306 9.70583C9.99708 9.80151 10.2431 9.86986 10.5302 9.86986C11.0496 9.86986 11.446 9.66482 11.446 9.37778C11.446 9.1044 11.0496 8.8857 10.5302 8.8857C10.0791 8.8857 9.72371 9.03606 9.62802 9.26843L5.21299 9.85619L3.77776 9.22742ZM9.84672 9.37778C9.84672 9.26843 10.1201 9.11807 10.5438 9.11807C10.9676 9.11807 11.2409 9.26843 11.2409 9.37778C11.2409 9.48713 10.9676 9.63749 10.5438 9.63749C10.1201 9.63749 9.84672 9.48713 9.84672 9.37778Z" fill="white"/>
</svg>
